<svg width="145" height="40" viewBox="0 0 145 40" fill="none" xmlns="http://www.w3.org/2000/svg">
<path d="M119.957 20.0749V28.2991H116.649V9.58438H119.884V16.6481H120.049C120.378 15.8561 120.886 15.2317 121.575 14.7748C122.269 14.3118 123.153 14.0803 124.225 14.0803C125.2 14.0803 126.049 14.2844 126.774 14.6926C127.499 15.1007 128.06 15.6977 128.456 16.4836C128.858 17.2695 129.059 18.229 129.059 19.3621V28.2991H125.751V19.8738C125.751 18.9296 125.507 18.1955 125.02 17.6716C124.539 17.1416 123.862 16.8766 122.991 16.8766C122.406 16.8766 121.882 17.0045 121.419 17.2604C120.963 17.5101 120.603 17.8726 120.341 18.3478C120.085 18.823 119.957 19.3987 119.957 20.0749Z" fill="white"/>
<path d="M107.92 28.5734C106.519 28.5734 105.316 28.2657 104.311 27.6504C103.312 27.0351 102.541 26.1853 101.999 25.1009C101.463 24.0104 101.195 22.7555 101.195 21.336C101.195 19.9105 101.469 18.6525 102.017 17.562C102.565 16.4654 103.339 15.6125 104.338 15.0033C105.343 14.388 106.531 14.0804 107.902 14.0804C109.041 14.0804 110.049 14.2906 110.927 14.7109C111.81 15.1252 112.514 15.7131 113.038 16.4746C113.561 17.23 113.86 18.1133 113.933 19.1246H110.771C110.643 18.4484 110.339 17.8849 109.858 17.4341C109.382 16.9772 108.746 16.7487 107.948 16.7487C107.271 16.7487 106.677 16.9315 106.166 17.297C105.654 17.6564 105.255 18.1742 104.969 18.8505C104.688 19.5267 104.548 20.3369 104.548 21.2812C104.548 22.2376 104.688 23.0601 104.969 23.7485C105.249 24.4308 105.642 24.9577 106.147 25.3293C106.659 25.6949 107.259 25.8776 107.948 25.8776C108.435 25.8776 108.871 25.7862 109.254 25.6035C109.644 25.4146 109.97 25.1435 110.232 24.7902C110.494 24.4369 110.674 24.0074 110.771 23.5017H113.933C113.854 24.4947 113.561 25.375 113.056 26.1426C112.55 26.9041 111.862 27.5012 110.991 27.9337C110.119 28.3601 109.096 28.5734 107.92 28.5734Z" fill="white"/>
<path d="M92.1731 28.2992V14.2631H95.3805V16.6025H95.5267C95.7826 15.7922 96.2212 15.1678 96.8426 14.7292C97.4701 14.2844 98.1859 14.0621 98.9901 14.0621C99.1728 14.0621 99.3769 14.0712 99.6023 14.0895C99.8338 14.1017 100.026 14.123 100.178 14.1535V17.1964C100.038 17.1477 99.8155 17.105 99.5109 17.0685C99.2124 17.0259 98.9231 17.0045 98.6428 17.0045C98.0397 17.0045 97.4975 17.1355 97.0162 17.3975C96.5411 17.6533 96.1664 18.0097 95.8923 18.4666C95.6181 18.9235 95.481 19.4505 95.481 20.0475V28.2992H92.1731Z" fill="white"/>
<path d="M60.8889 14.1177V11.2758L75.8205 7.89304V10.735L70.0361 12.4263V28.2992H66.6733V12.9901L60.8889 14.1177Z" fill="white"/>
<path d="M59.6781 14.2631V16.8217H51.6092V14.2631H59.6781ZM53.6013 10.9003H56.9092V24.0774C56.9092 24.5221 56.9763 24.8632 57.1103 25.1008C57.2504 25.3323 57.4332 25.4907 57.6586 25.576C57.884 25.6613 58.1337 25.7039 58.4079 25.7039C58.615 25.7039 58.8039 25.6887 58.9744 25.6583C59.1511 25.6278 59.2851 25.6004 59.3765 25.576L59.9339 28.1621C59.7573 28.223 59.5045 28.29 59.1755 28.3631C58.8526 28.4362 58.4566 28.4789 57.9875 28.4911C57.159 28.5154 56.4127 28.3905 55.7487 28.1164C55.0847 27.8362 54.5577 27.4036 54.1678 26.8188C53.784 26.234 53.5952 25.5029 53.6013 24.6256V10.9003Z" fill="white"/>
<path d="M49.6399 17.9732L46.6243 18.3022C46.5391 17.9976 46.3898 17.7112 46.1766 17.4432C45.9694 17.1751 45.6892 16.9589 45.3359 16.7944C44.9825 16.6299 44.55 16.5477 44.0383 16.5477C43.3499 16.5477 42.7711 16.6969 42.302 16.9954C41.839 17.2939 41.6106 17.6808 41.6167 18.156C41.6106 18.5641 41.7598 18.8961 42.0644 19.152C42.3751 19.4079 42.8869 19.6181 43.5996 19.7825L45.9938 20.2943C47.3219 20.5806 48.3088 21.0345 48.9545 21.6558C49.6064 22.2772 49.9354 23.0905 49.9415 24.0957C49.9354 24.9791 49.6765 25.7588 49.1647 26.4351C48.6591 27.1052 47.9555 27.6291 47.0538 28.0068C46.1522 28.3845 45.1166 28.5734 43.9469 28.5734C42.2289 28.5734 40.846 28.2139 39.7982 27.4951C38.7504 26.7701 38.1259 25.7619 37.9249 24.4704L41.1506 24.1597C41.2968 24.7932 41.6075 25.2715 42.0827 25.5943C42.5579 25.9172 43.1762 26.0787 43.9377 26.0787C44.7236 26.0787 45.3541 25.9172 45.8293 25.5943C46.3106 25.2715 46.5512 24.8724 46.5512 24.3973C46.5512 23.9952 46.3959 23.6632 46.0852 23.4012C45.7806 23.1393 45.3054 22.9382 44.6597 22.7981L42.2655 22.2955C40.9191 22.0153 39.9231 21.5431 39.2773 20.8791C38.6316 20.209 38.3117 19.3622 38.3178 18.3387C38.3117 17.4737 38.5463 16.7243 39.0215 16.0908C39.5027 15.4511 40.1698 14.9576 41.0227 14.6104C41.8817 14.2571 42.8716 14.0804 43.9926 14.0804C45.6374 14.0804 46.932 14.4307 47.8763 15.1313C48.8266 15.8318 49.4145 16.7792 49.6399 17.9732Z" fill="white"/>
<path d="M29.5065 28.5734C28.0992 28.5734 26.8838 28.2809 25.8604 27.6961C24.843 27.1052 24.0602 26.2706 23.5119 25.1923C22.9636 24.1079 22.6895 22.8316 22.6895 21.3634C22.6895 19.9196 22.9636 18.6525 23.5119 17.562C24.0663 16.4654 24.84 15.6125 25.833 15.0033C26.826 14.388 27.9926 14.0804 29.3328 14.0804C30.1979 14.0804 31.0142 14.2205 31.7818 14.5007C32.5555 14.7749 33.2378 15.2013 33.8288 15.7801C34.4258 16.3588 34.8949 17.0959 35.236 17.9915C35.5772 18.8809 35.7478 19.9409 35.7478 21.1715V22.1858H24.2429V19.9562H32.5769C32.5708 19.3226 32.4337 18.7591 32.1656 18.2656C31.8976 17.7661 31.5229 17.3731 31.0417 17.0868C30.5665 16.8005 30.0121 16.6573 29.3785 16.6573C28.7023 16.6573 28.1083 16.8218 27.5966 17.1508C27.0849 17.4737 26.6858 17.9001 26.3995 18.4301C26.1193 18.954 25.9761 19.5297 25.97 20.1572V22.1036C25.97 22.9199 26.1193 23.6205 26.4178 24.2054C26.7163 24.7841 27.1336 25.2288 27.6697 25.5395C28.2058 25.8441 28.8333 25.9964 29.5522 25.9964C30.0334 25.9964 30.469 25.9294 30.8589 25.7954C31.2488 25.6553 31.5869 25.4512 31.8732 25.1831C32.1595 24.9151 32.3758 24.5831 32.522 24.1871L35.6107 24.5343C35.4157 25.3507 35.0441 26.0634 34.4958 26.6726C33.9537 27.2758 33.2592 27.7448 32.4124 28.0799C31.5656 28.4089 30.5969 28.5734 29.5065 28.5734Z" fill="white"/>
<path d="M7.893 15.809V12.9671L22.8246 9.58438V12.4263L17.0402 14.1177V29.9905H13.6774V14.6815L7.893 15.809Z" fill="white"/>
<path d="M88.9535 21.2518C88.9535 25.144 85.7983 28.2991 81.9062 28.2991C78.014 28.2991 74.8588 25.144 74.8588 21.2518C74.8588 17.3597 78.014 14.2045 81.9062 14.2045C85.7983 14.2045 88.9535 17.3597 88.9535 21.2518ZM77.7439 21.2518C77.7439 23.5506 79.6074 25.4141 81.9062 25.4141C84.2049 25.4141 86.0684 23.5506 86.0684 21.2518C86.0684 18.9531 84.2049 17.0895 81.9062 17.0895C79.6074 17.0895 77.7439 18.9531 77.7439 21.2518Z" fill="white"/>
</svg>
